<svg width="170" height="37" viewBox="0 0 170 37" fill="none" xmlns="http://www.w3.org/2000/svg">
<path fill-rule="evenodd" clip-rule="evenodd" d="M31.5 3.21546C27.2127 -1.07182 20.2612 -1.07182 15.9739 3.21546C14.6072 4.58223 13.6761 6.21967 13.1808 7.95527C11.4456 8.45069 9.80853 9.38163 8.4421 10.7481C4.15403 15.0345 4.15403 21.9861 8.4421 26.2741C12.7302 30.5614 19.6809 30.5614 23.9682 26.2741C25.3345 24.9075 26.2654 23.2704 26.7608 21.5353C28.4962 21.0399 30.1334 20.1089 31.5 18.7423C35.7873 14.4535 35.7873 7.50274 31.5 3.21546ZM12.7643 10.6188C12.669 13.547 13.7388 16.5064 15.9739 18.7423C18.209 20.977 21.1676 22.0469 24.0953 21.952C23.677 22.9118 23.0754 23.8109 22.2906 24.5957V24.5965C20.6098 26.2765 18.4073 27.1169 16.2047 27.1169C14.003 27.1169 11.7997 26.2765 10.1189 24.5965V24.5957C8.43893 22.9158 7.59856 20.7124 7.59856 18.5099C7.59856 16.3082 8.43814 14.1048 10.1189 12.4241C10.9045 11.6389 11.804 11.0371 12.7643 10.6188Z" fill="#8796A5"/>
<path d="M121.477 26.4175C122.09 27.167 122.849 27.5417 123.752 27.5417V27.5425H128.276C129.179 27.5425 130.068 27.1686 130.945 26.4183C131.821 25.6681 132.331 24.8506 132.476 23.966L132.855 21.8259C133.018 20.9587 132.796 20.1997 132.191 19.5498C131.587 18.8992 130.84 18.466 129.956 18.2494L125.622 17.2469C125.404 17.1916 125.207 17.0793 125.026 16.9077C124.845 16.7362 124.773 16.533 124.809 16.2982L125.188 14.1036C125.224 13.8688 125.359 13.6569 125.595 13.4672C125.829 13.2774 126.055 13.1826 126.272 13.1826H130.796C131.031 13.1826 131.225 13.2822 131.378 13.4806C131.532 13.679 131.591 13.887 131.555 14.1028L131.338 15.5124H133.966L134.211 14.2111C134.373 13.3075 134.147 12.4813 133.533 11.7319C132.92 10.9824 132.161 10.6077 131.257 10.6077H126.732C125.848 10.6077 124.963 10.9824 124.079 11.7319C123.193 12.4821 122.67 13.2988 122.507 14.1842L122.155 16.216C122.01 17.0833 122.24 17.8414 122.846 18.4921C123.451 19.1427 124.196 19.5759 125.081 19.7926L129.415 20.795C129.632 20.8495 129.831 20.9634 130.011 21.1342C130.191 21.3049 130.264 21.5081 130.228 21.7437L129.821 24.0458C129.785 24.2806 129.649 24.4933 129.414 24.683C129.179 24.872 128.945 24.9669 128.71 24.9669H124.213C123.978 24.9669 123.784 24.872 123.63 24.683C123.477 24.4925 123.418 24.2806 123.454 24.0458L123.698 22.6378H121.044L120.8 23.9652C120.636 24.8506 120.863 25.6681 121.477 26.4175Z" fill="#8796A5"/>
<path d="M37.0056 27.5418L39.9852 10.6093H50.5504L50.0903 13.1826H42.1791L41.4478 17.4367H48.2206L47.7605 20.0108H40.9877L40.1204 24.9677H48.004L47.5708 27.5418H37.0056Z" fill="#8796A5"/>
<path fill-rule="evenodd" clip-rule="evenodd" d="M51.9593 27.5418C51.2912 27.5418 50.7489 27.2935 50.3339 26.7971C49.9188 26.3006 49.7741 25.7179 49.9006 25.0499L50.2255 23.1802C50.3338 22.5303 50.6857 21.9516 51.2818 21.4472C51.8778 20.9413 52.5008 20.6883 53.1514 20.6883H57.4324L57.649 19.4692C57.6846 19.2344 57.6261 19.0225 57.4727 18.832C57.3193 18.6431 57.1257 18.5482 56.8909 18.5482H52.1498L52.5562 16.2721H57.0261C57.9115 16.2721 58.6649 16.6477 59.2879 17.3971C59.9109 18.1458 60.1496 18.9727 60.0057 19.8756L58.6515 27.5426H51.9593V27.5418ZM52.285 25.2657H56.6189L57.0253 22.9636H52.6906L52.285 25.2657Z" fill="#8796A5"/>
<path d="M62.0912 25.2657L61.6849 27.5418H67.8087C68.4767 27.5418 69.1044 27.2935 69.691 26.7971C70.2776 26.3006 70.6255 25.7179 70.7338 25.0499L71.0034 23.5051C71.1117 22.8916 70.9718 22.3445 70.5836 21.8662C70.1954 21.3887 69.6404 21.0859 68.9179 20.9595L64.7997 20.3634L65.1255 18.5482H71.3022L71.7086 16.2721H65.5855C64.9175 16.2721 64.2898 16.5204 63.7024 17.0169C63.1158 17.5141 62.768 18.096 62.6597 18.7648L62.3885 20.2282C62.281 20.8417 62.4201 21.3887 62.8091 21.8662C63.1972 22.3445 63.7609 22.6386 64.5017 22.7469L68.6198 23.3699L68.2949 25.2657H62.0912Z" fill="#8796A5"/>
<path d="M72.8738 33.2039L73.2802 30.9009H78.0212C78.2553 30.9009 78.4861 30.806 78.7114 30.6171C78.9375 30.4274 79.0688 30.2242 79.1043 30.0076L79.5384 27.5426H75.2574C74.6439 27.5426 74.1206 27.2809 73.6865 26.7567C73.2533 26.2334 73.0905 25.6642 73.1988 25.0507L74.7435 16.2721H77.1548L75.5839 25.2665H79.9455L81.5164 16.2721H83.9276L81.5978 29.6012C81.435 30.504 80.9163 31.3302 80.0404 32.0804C79.1644 32.8291 78.275 33.2046 77.3722 33.2046H72.8738V33.2039Z" fill="#8796A5"/>
<path fill-rule="evenodd" clip-rule="evenodd" d="M137.894 27.5418C136.99 27.5418 136.232 27.1671 135.618 26.4176C135.004 25.6681 134.777 24.8507 134.941 23.9652L135.862 18.764C135.989 18.0778 136.345 17.4865 136.933 16.9892C137.52 16.4919 138.148 16.2437 138.816 16.2437H142.988C143.656 16.2437 144.197 16.4919 144.613 16.9892C145.029 17.4865 145.173 18.0778 145.047 18.764L144.288 23.098H137.515L137.299 24.3439C137.263 24.5795 137.321 24.7906 137.476 24.9811C137.629 25.1701 137.823 25.2649 138.058 25.2649H142.772L142.365 27.541H137.894V27.5418ZM137.921 20.8227H142.255L142.662 18.5474H138.328L137.921 20.8227Z" fill="#8796A5"/>
<path d="M147.944 16.2713L145.967 27.5417H148.379L149.977 18.5474H154.312L152.741 27.5417H155.152L156.695 18.764C156.822 18.0952 156.677 17.5133 156.262 17.0161C155.846 16.5196 155.305 16.2713 154.637 16.2713H147.944Z" fill="#8796A5"/>
<path fill-rule="evenodd" clip-rule="evenodd" d="M160.109 27.5418C159.441 27.5418 158.899 27.2935 158.484 26.7971C158.068 26.3006 157.924 25.7179 158.049 25.0499L159.16 18.7648C159.269 18.1142 159.621 17.5363 160.216 17.0311C160.813 16.5251 161.436 16.2721 162.086 16.2721H166.366L167.369 10.6101H169.78L166.8 27.5426H160.109V27.5418ZM160.434 25.2657H164.796L165.962 18.5474H161.627L160.434 25.2657Z" fill="#8796A5"/>
<path fill-rule="evenodd" clip-rule="evenodd" d="M87.3951 10.6093L84.4146 27.5418V27.5426H87.0694L88.3422 20.3634H93.7877C94.6913 20.3634 95.5807 19.9887 96.4566 19.2392C97.3326 18.4897 97.8426 17.6628 97.9872 16.76L98.4481 14.1858C98.611 13.3004 98.3849 12.4829 97.7714 11.7335C97.1571 10.984 96.399 10.6093 95.4953 10.6093H87.3951ZM94.2225 17.7893H88.7763L89.5897 13.1826H95.0352C95.2708 13.1826 95.4637 13.2767 95.6178 13.4672C95.772 13.6577 95.8306 13.8688 95.7942 14.1036L95.334 16.8406C95.2977 17.0754 95.1617 17.292 94.9269 17.4904C94.6921 17.6897 94.4573 17.7893 94.2225 17.7893Z" fill="#8796A5"/>
<path fill-rule="evenodd" clip-rule="evenodd" d="M99.3699 27.5418C98.7011 27.5418 98.1604 27.2935 97.7445 26.7971C97.3287 26.3006 97.184 25.7179 97.3105 25.0499L97.6354 23.1802C97.7445 22.5303 98.0963 21.9516 98.6924 21.4472C99.2885 20.9413 99.9115 20.6883 100.561 20.6883H104.841L105.058 19.4692C105.094 19.2344 105.036 19.0225 104.882 18.832C104.728 18.6431 104.535 18.5482 104.299 18.5482H99.5581L99.9652 16.2721H104.435C105.32 16.2721 106.074 16.6477 106.697 17.3971C107.32 18.1458 107.56 18.9727 107.415 19.8756L106.06 27.5426H99.3699V27.5418ZM99.6949 25.2657H104.029L104.436 22.9636H100.101L99.6949 25.2657Z" fill="#8796A5"/>
<path d="M109.042 30.9009L108.636 33.2039V33.2046H113.134C114.037 33.2046 114.927 32.8291 115.803 32.0804C116.679 31.3302 117.197 30.504 117.36 29.6012L119.69 16.2721H117.279L115.707 25.2665H111.346L112.916 16.2721H110.505L108.961 25.0507C108.853 25.6642 109.015 26.2334 109.448 26.7567C109.882 27.2809 110.406 27.5426 111.02 27.5426H115.3L114.867 30.0076C114.83 30.2242 114.699 30.4274 114.474 30.6171C114.249 30.806 114.018 30.9009 113.783 30.9009H109.042Z" fill="#8796A5"/>
<path d="M0.513474 24.6526C0.381447 24.6526 0.25021 24.6028 0.150593 24.5024C-0.0501976 24.3016 -0.0501976 23.9759 0.150593 23.7751L3.09865 20.827C3.29944 20.6262 3.62437 20.6262 3.82518 20.827C4.02599 21.0279 4.02599 21.3536 3.82518 21.5544L0.877144 24.5024C0.776738 24.6028 0.6455 24.6526 0.513474 24.6526Z" fill="#8796A5"/>
<path d="M8.98605 35.7974C9.14021 35.9515 9.3426 36.029 9.54499 36.029C9.74738 36.029 9.94977 35.9515 10.1039 35.7974L13.3453 32.556C13.6544 32.2469 13.6544 31.7473 13.3453 31.4382C13.0362 31.129 12.5365 31.129 12.2274 31.4382L8.98605 34.6795C8.67694 34.9886 8.67694 35.4883 8.98605 35.7974Z" fill="#8796A5"/>
<path d="M3.59674 34.9902C3.46471 34.9902 3.33347 34.9404 3.23386 34.84C3.03307 34.6392 3.03307 34.3135 3.23386 34.1127L7.76939 29.5771C7.97018 29.3763 8.29511 29.3763 8.49592 29.5771C8.69673 29.7779 8.69673 30.1037 8.49592 30.3045L3.96041 34.84C3.86 34.9404 3.72876 34.9902 3.59674 34.9902Z" fill="#8796A5"/>
<path d="M1.04002 30.3227C1.19418 30.4768 1.39657 30.5543 1.59896 30.5543C1.80135 30.5543 2.00453 30.4768 2.1579 30.3227L4.70986 27.7699C5.01899 27.4608 5.01899 26.9611 4.70986 26.652C4.40075 26.3429 3.90032 26.3429 3.592 26.652L1.04002 29.2048C0.730917 29.5139 0.730917 30.0135 1.04002 30.3227Z" fill="#8796A5"/>
</svg>
