<svg width="243" height="52" viewBox="0 0 243 52" fill="none" xmlns="http://www.w3.org/2000/svg">
<path d="M52.9647 39.4196L57.2294 15.1847H72.351L71.6925 18.8678H60.3694L59.3227 24.9565H69.0165L68.3579 28.6407H58.6642L57.4229 35.7353H68.7064L68.0863 39.4196H52.9647Z" fill="white"/>
<path d="M74.3674 39.4195C73.4113 39.4195 72.6351 39.0642 72.041 38.3537C71.447 37.6431 71.2399 36.8091 71.421 35.853L71.886 33.177C72.041 32.2468 72.5446 31.4186 73.3977 30.6967C74.2509 29.9725 75.1425 29.6104 76.0738 29.6104H82.2009L82.511 27.8656C82.5619 27.5295 82.4782 27.2263 82.2586 26.9536C82.0391 26.6832 81.7619 26.5474 81.4258 26.5474H74.6401L75.2217 23.2897H81.6193C82.8866 23.2897 83.965 23.8272 84.8566 24.8999C85.7483 25.9714 86.09 27.155 85.884 28.4472L83.9457 39.4207H74.3674V39.4195ZM74.8336 36.1619H81.0366L81.6182 32.8669H75.4141L74.8336 36.1619Z" fill="white"/>
<path d="M88.2874 39.4195L88.869 36.1619H97.748L98.213 33.4485L92.319 32.5569C91.2587 32.4019 90.4519 31.9809 89.8964 31.2964C89.3397 30.6129 89.1405 29.8299 89.2944 28.9519L89.6825 26.8574C89.8375 25.9001 90.3354 25.0674 91.175 24.3556C92.0157 23.645 92.9141 23.2897 93.8703 23.2897H102.634L102.052 26.5474H93.2117L92.7455 29.1453L98.6396 29.9985C99.6738 30.1796 100.468 30.6129 101.024 31.2964C101.579 31.9809 101.78 32.7639 101.625 33.642L101.239 35.853C101.084 36.8091 100.586 37.6431 99.7462 38.3537C98.9067 39.0642 98.0082 39.4195 97.0521 39.4195H88.2874Z" fill="white"/>
<path d="M104.302 47.5235L104.883 44.2274H111.669C112.004 44.2274 112.334 44.0916 112.657 43.8211C112.98 43.5496 113.168 43.2588 113.219 42.9487L113.84 39.4207H107.713C106.835 39.4207 106.086 39.0461 105.465 38.2959C104.845 37.5469 104.612 36.7322 104.767 35.8541L106.978 23.2897H110.429L108.181 36.163H114.423L116.671 23.2897H120.123L116.788 42.3671C116.555 43.6593 115.813 44.8418 114.559 45.9156C113.305 46.9871 112.032 47.5246 110.74 47.5246H104.302V47.5235Z" fill="white"/>
<path d="M177.122 39.4195C175.83 39.4195 174.743 38.8832 173.865 37.8105C172.987 36.7378 172.662 35.5678 172.897 34.3005L173.245 32.4007H177.045L176.695 34.4159C176.644 34.752 176.728 35.0552 176.948 35.3279C177.168 35.5984 177.445 35.7342 177.781 35.7342H184.218C184.554 35.7342 184.89 35.5984 185.226 35.3279C185.562 35.0564 185.756 34.752 185.808 34.4159L186.39 31.121C186.442 30.7838 186.338 30.493 186.08 30.2486C185.822 30.0041 185.538 29.8412 185.227 29.7631L179.024 28.3284C177.758 28.0183 176.691 27.3983 175.825 26.467C174.958 25.5358 174.629 24.4506 174.836 23.2094L175.34 20.3014C175.573 19.0341 176.322 17.8652 177.589 16.7914C178.855 15.7187 180.121 15.1824 181.388 15.1824H187.863C189.157 15.1824 190.243 15.7187 191.121 16.7914C192 17.8641 192.324 19.0465 192.091 20.3398L191.741 22.2023H187.98L188.29 20.1848C188.341 19.8759 188.257 19.5783 188.036 19.2943C187.818 19.0103 187.54 18.8677 187.204 18.8677H180.728C180.418 18.8677 180.094 19.0035 179.759 19.2751C179.422 19.5466 179.229 19.8499 179.177 20.186L178.635 23.3271C178.583 23.6631 178.687 23.9539 178.945 24.1995C179.204 24.445 179.487 24.6057 179.798 24.6849L186.001 26.1196C187.267 26.4297 188.335 27.0497 189.2 27.981C190.066 28.9111 190.383 29.9974 190.15 31.2386L189.608 34.3017C189.4 35.5678 188.671 36.7378 187.416 37.8116C186.162 38.8854 184.89 39.4206 183.596 39.4206H177.122V39.4195Z" fill="white"/>
<path d="M197.363 39.4196C196.069 39.4196 194.984 38.8832 194.105 37.8105C193.227 36.7379 192.902 35.5679 193.136 34.3006L194.455 26.8563C194.636 25.8741 195.146 25.0278 195.987 24.316C196.827 23.6043 197.726 23.249 198.682 23.249H204.653C205.609 23.249 206.384 23.6043 206.979 24.316C207.574 25.0278 207.782 25.8741 207.601 26.8563L206.514 33.0593H196.821L196.512 34.8426C196.46 35.1798 196.543 35.4819 196.764 35.7546C196.983 36.025 197.261 36.1608 197.597 36.1608H204.344L203.762 39.4184H197.363V39.4196ZM197.401 29.8028H203.605L204.187 26.5463H197.984L197.401 29.8028Z" fill="white"/>
<path d="M208.918 39.4195L211.747 23.2886H221.326C222.283 23.2886 223.057 23.6439 223.652 24.3545C224.246 25.0662 224.453 25.899 224.272 26.8563L222.064 39.4195H218.612L220.861 26.5462H214.657L212.37 39.4195H208.918Z" fill="white"/>
<path d="M229.158 39.4195C228.202 39.4195 227.427 39.0642 226.832 38.3537C226.237 37.6431 226.031 36.8091 226.211 35.853L227.8 26.8574C227.955 25.9262 228.46 25.099 229.312 24.376C230.165 23.6518 231.058 23.2897 231.988 23.2897H238.114L239.549 15.1858H243L238.735 39.4207H229.158V39.4195ZM229.623 36.1619H235.867L237.535 26.5462H231.331L229.623 36.1619Z" fill="white"/>
<path d="M120.82 39.4196L125.085 15.1847H136.679C137.972 15.1847 139.057 15.721 139.937 16.7937C140.815 17.8664 141.138 19.0364 140.905 20.3037L140.246 23.9879C140.038 25.2801 139.309 26.4637 138.055 27.5364C136.801 28.609 135.528 29.1454 134.235 29.1454H126.441L124.619 39.4207H120.82V39.4196ZM127.062 25.4612H134.857C135.193 25.4612 135.529 25.3186 135.865 25.0334C136.202 24.7494 136.396 24.4394 136.448 24.1033L137.107 20.186C137.159 19.8499 137.075 19.5478 136.854 19.2751C136.634 19.0024 136.358 18.8678 136.02 18.8678H128.227L127.062 25.4612Z" fill="#FEA22A"/>
<path d="M142.225 39.4195C141.267 39.4195 140.493 39.0642 139.898 38.3537C139.303 37.6431 139.096 36.8091 139.277 35.853L139.742 33.177C139.898 32.2468 140.402 31.4186 141.255 30.6967C142.108 29.9725 143 29.6104 143.93 29.6104H150.056L150.366 27.8656C150.418 27.5295 150.334 27.2263 150.114 26.9536C149.894 26.6832 149.617 26.5474 149.28 26.5474H142.494L143.077 23.2897H149.474C150.74 23.2897 151.82 23.8272 152.712 24.8999C153.603 25.9714 153.946 27.155 153.739 28.4472L151.8 39.4207H142.225V39.4195ZM142.69 36.1619H148.893L149.475 32.8669H143.271L142.69 36.1619Z" fill="#FEA22A"/>
<path d="M155.486 47.5235L156.068 44.2274H162.853C163.189 44.2274 163.52 44.0916 163.842 43.8211C164.165 43.5496 164.353 43.2588 164.405 42.9487L165.025 39.4207H158.899C158.02 39.4207 157.27 39.0461 156.649 38.2959C156.029 37.5469 155.797 36.7322 155.952 35.8541L158.162 23.2897H161.613L159.365 36.163H165.608L167.857 23.2897H171.308L167.974 42.3671C167.74 43.6593 166.998 44.8418 165.744 45.9156C164.491 46.9871 163.218 47.5246 161.924 47.5246H155.486V47.5235Z" fill="#FEA22A"/>
<path fill-rule="evenodd" clip-rule="evenodd" d="M12.0829 15.3833C18.2191 9.24707 28.1686 9.24707 34.3048 15.3833C40.441 21.5184 40.441 31.4679 34.3048 37.6052C28.1686 43.7414 18.2202 43.7414 12.0829 37.6052C5.94552 31.4679 5.94552 21.5184 12.0829 15.3833ZM14.4828 17.7821C12.0772 20.1877 10.8755 23.3413 10.8755 26.4926C10.8755 29.645 12.0784 32.7985 14.4828 35.203V35.2041C16.8884 37.6086 20.042 38.8114 23.1933 38.8114C26.3457 38.8114 29.4981 37.6086 31.9037 35.2041V35.203C34.3082 32.7985 35.511 29.645 35.511 26.4926C35.511 23.3413 34.3082 20.1877 31.9037 17.7821C29.4981 15.3776 26.3457 14.1748 23.1933 14.1748C20.0409 14.1748 16.8884 15.3776 14.4828 17.7821Z" fill="white"/>
<path fill-rule="evenodd" clip-rule="evenodd" d="M22.8629 4.60217C28.9991 -1.53406 38.9486 -1.53406 45.0848 4.60217C51.2211 10.7384 51.2211 20.6867 45.0848 26.8252C38.9486 32.9614 29.0003 32.9614 22.8629 26.8252C16.7267 20.6867 16.7267 10.7384 22.8629 4.60217Z" fill="url(#paint0_linear)"/>
<path d="M0.734922 35.2844C0.545958 35.2844 0.358126 35.2131 0.215554 35.0694C-0.0718515 34.782 -0.0718515 34.3158 0.215554 34.0284L4.43499 29.809C4.7224 29.5216 5.18745 29.5216 5.47486 29.809C5.76226 30.0964 5.76226 30.5626 5.47486 30.85L1.25542 35.0694C1.11172 35.2131 0.923886 35.2844 0.734922 35.2844Z" fill="white"/>
<path d="M13.6614 51.567C13.3717 51.567 13.0821 51.4562 12.8614 51.2355C12.419 50.7931 12.419 50.078 12.8614 49.6355L17.5006 44.9963C17.9431 44.5539 18.6582 44.5539 19.1006 44.9963C19.543 45.4387 19.543 46.1539 19.1006 46.5963L14.4614 51.2355C14.2407 51.4562 13.9511 51.567 13.6614 51.567Z" fill="#FEA22A"/>
<path d="M5.14789 50.0802C4.95892 50.0802 4.77109 50.0089 4.62852 49.8652C4.34111 49.5778 4.34111 49.1116 4.62852 48.8242L11.12 42.3327C11.4075 42.0453 11.8725 42.0453 12.1599 42.3327C12.4473 42.6201 12.4473 43.0863 12.1599 43.3737L5.66838 49.8652C5.52468 50.0089 5.33685 50.0802 5.14789 50.0802Z" fill="white"/>
<path d="M2.28854 43.7313C1.99887 43.7313 1.7092 43.6204 1.48856 43.3997C1.04613 42.9573 1.04613 42.2422 1.48856 41.7998L5.1411 38.1461C5.58239 37.7037 6.29864 37.7037 6.74107 38.1461C7.18349 38.5885 7.18349 39.3036 6.74107 39.7461L3.08852 43.3997C2.86901 43.6204 2.57821 43.7313 2.28854 43.7313Z" fill="#FEA22A"/>
<defs>
<linearGradient id="paint0_linear" x1="23.8735" y1="27.7518" x2="44.0755" y2="3.6758" gradientUnits="userSpaceOnUse">
<stop stop-color="#F9723E"/>
<stop offset="1" stop-color="#FEA22A"/>
</linearGradient>
</defs>
</svg>
