<svg width="64" height="64" viewBox="0 0 64 64" fill="none" xmlns="http://www.w3.org/2000/svg">
<path d="M63 32.053C63 48.9893 49.1302 62.7359 32 62.7359C14.8698 62.7359 1 48.9893 1 32.053C1 15.1167 14.8698 1.37012 32 1.37012C49.1302 1.37012 63 15.1167 63 32.053Z" stroke="#85CD63" stroke-width="2"/>
<path d="M63 32.053C63 48.9893 49.1302 62.7359 32 62.7359C14.8698 62.7359 1 48.9893 1 32.053C1 15.1167 14.8698 1.37012 32 1.37012C49.1302 1.37012 63 15.1167 63 32.053Z" stroke="#CD3B3E" stroke-width="2"/>
<path d="M44.0638 22.0288C44.4534 21.6412 44.4518 21.0143 44.0603 20.6286C43.6689 20.2429 43.0357 20.2444 42.6461 20.6321L31.9965 31.2283L21.2942 20.6842C20.9027 20.2985 20.2696 20.3001 19.88 20.6877C19.4905 21.0753 19.492 21.7022 19.8835 22.0879L30.5858 32.6319L19.9362 43.2281C19.5466 43.6157 19.5482 44.2426 19.9397 44.6283C20.3312 45.014 20.9643 45.0125 21.3539 44.6248L32.0035 34.0286L42.7058 44.5727C43.0973 44.9584 43.7304 44.9568 44.12 44.5692C44.5095 44.1816 44.508 43.5547 44.1165 43.1691L33.4142 32.625L44.0638 22.0288Z" fill="#CD3B3E"/>
</svg>
